Verenigde Staten
Animatie / Familie
90 minuten

geregisseerd door Phil Lord en Chris Miller (II)
met de stemmen van Bill Hader, Anna Faris en James Caan

Flint Lockwood (Bill Hader) is een mislukte uitvinder, die met creaties als een apengedachtenvertaler helaas weinig succes oogst. Tot hij op een dag een machine uitvindt die ervoor zorgt dat het donuts, ijsjes en gehaktballen regent. De enige vriend en collega van Flint is Steve, een aapje dat alleen maar aan eten denkt. Sam (Anna Farris) is een enthousiaste stagiaire die voor een weerstation werkt. Ze droomt er van om een professionele weervrouw te worden en die droom zou wel eens werkelijkheid kunnen worden wanneer ze als enige bericht over een bui van cheeseburgers.

Nederlands/Vlaamse stemmen:

-- Peter Van de Veire 
-- Alex Agnew 
-- Koen De Graeve 
-- Carry Goossens

Format                           : AVI
Format/Info                      : Audio Video Interleave
File size                        : 1.37 GiB
Duration                         : 1h 26mn
Overall bit rate                 : 2 271 Kbps
Movie name                       : Movies.Title1.Angle1.DVDRip
Writing application              : Lavf52.33.0
Original source form/Name        : Movies

Video
ID                               : 0
Format                           : MPEG-4 Visual
Format profile                   : Simple@L3
Format settings, BVOP            : No
Format settings, QPel            : No
Format settings, GMC             : No warppoints
Format settings, Matrix          : Default (H.263)
Codec ID                         : XVID
Codec ID/Hint                    : XviD
Duration                         : 1h 26mn
Bit rate                         : 1 876 Kbps
Width                            : 1 024 pixels
Height                           : 436 pixels
Display aspect ratio             : 2.35:1
Frame rate                       : 25.000 fps
Resolution                       : 8 bits
Colorimetry                      : 4:2:0
Scan type                        : Progressive
Bits/(Pixel*Frame)               : 0.168
Stream size                      : 1.13 GiB (83%)
Writing library                  : XviD 1.2.1 (UTC 2008-12-04)

Audio
ID                               : 1
Format                           : AC-3
Format/Info                      : Audio Coding 3
Codec ID                         : 2000
Duration                         : 1h 26mn
Bit rate mode                    : Constant
Bit rate                         : 384 Kbps
Channel(s)                       : 6 channels
Channel positions                : Front: L C R, Surround: L R, LFE
Sampling rate                    : 48.0 KHz
Stream size                      : 237 MiB (17%)
Alignment                        : Aligned on interleaves
Interleave, duration             : 32 ms (0.80 video frame)
Interleave, preload duration     : 32 ms

Gereedschap: DVDFAB 7.0.4.0.
             MediaInfo v0.7.27

Link: http://www.moviemeter.nl/film/54575
